<svg version="1.1" id="Layer_1" xmlns="http://www.w3.org/2000/svg" xmlns:xlink="http://www.w3.org/1999/xlink" x="0px" y="0px"
	 width="100%" viewBox="0 0 223 192" enable-background="new 0 0 223 192" xml:space="preserve">
<path fill="#FEFFFF" opacity="1.000000" stroke="none" 
	d="
M133.000000,193.000000 
	C88.666672,193.000000 44.833340,193.000000 1.000006,193.000000 
	C1.000004,129.000000 1.000004,65.000015 1.000002,1.000015 
	C75.333321,1.000010 149.666641,1.000010 223.999969,1.000005 
	C223.999985,64.999985 223.999985,128.999969 224.000000,192.999969 
	C193.833328,193.000000 163.666672,193.000000 133.000000,193.000000 
M32.475899,112.499863 
	C32.476463,127.162819 32.420002,141.826065 32.496372,156.488632 
	C32.553253,167.409653 37.200035,171.970261 48.060589,171.972565 
	C88.050430,171.981033 128.040268,171.981140 168.030106,171.972382 
	C178.847763,171.970001 183.586334,167.356308 183.600845,156.471375 
	C183.654160,116.481613 183.654938,76.491684 183.600281,36.501919 
	C183.585373,25.602293 178.872009,21.029724 168.014923,21.027430 
	C128.358337,21.019047 88.701744,21.022635 49.045151,21.024796 
	C36.813332,21.025463 32.495438,25.294146 32.483433,37.518650 
	C32.459213,62.179028 32.476421,86.839439 32.475899,112.499863 
z"/>
<path fill="#3A74FF" opacity="1.000000" stroke="none" 
	d="
M32.476219,111.999847 
	C32.476421,86.839439 32.459213,62.179028 32.483433,37.518650 
	C32.495438,25.294146 36.813332,21.025463 49.045151,21.024796 
	C88.701744,21.022635 128.358337,21.019047 168.014923,21.027430 
	C178.872009,21.029724 183.585373,25.602293 183.600281,36.501919 
	C183.654938,76.491684 183.654160,116.481613 183.600845,156.471375 
	C183.586334,167.356308 178.847763,171.970001 168.030106,171.972382 
	C128.040268,171.981140 88.050430,171.981033 48.060589,171.972565 
	C37.200035,171.970261 32.553253,167.409653 32.496372,156.488632 
	C32.420002,141.826065 32.476463,127.162819 32.476219,111.999847 
M81.101494,48.612797 
	C72.223984,53.533421 63.279747,58.340572 54.533058,63.483677 
	C53.033043,64.365692 51.483841,66.669838 51.464809,68.334267 
	C51.249584,87.156929 51.298264,105.983093 51.394016,124.807724 
	C51.400650,126.111809 51.968410,127.981461 52.920559,128.609070 
	C56.189247,130.763672 59.745232,132.482422 63.758465,134.677292 
	C63.863323,132.299469 63.993732,130.701401 63.995075,129.103210 
	C64.009758,111.610870 64.085327,94.117775 63.928047,76.626823 
	C63.900417,73.553925 64.834618,71.913750 67.550011,70.448875 
	C80.144470,63.654556 92.564575,56.536507 105.177345,49.777397 
	C106.698738,48.962093 109.394066,48.904999 110.895218,49.709503 
	C123.653999,56.547211 136.318268,63.569077 148.844131,70.823654 
	C150.403442,71.726761 151.854111,74.293907 151.888580,76.117706 
	C152.143539,89.606995 151.910965,103.105042 152.112259,116.596153 
	C152.159576,119.767921 150.971878,121.339638 148.345535,122.738213 
	C139.974548,127.195900 131.731277,131.892807 123.415077,136.454300 
	C118.321243,139.248291 113.143028,144.194382 108.077843,144.100952 
	C102.769623,144.003021 97.617554,138.900299 92.263878,136.254852 
	C89.817162,135.045853 88.977074,133.548401 89.031242,130.839996 
	C89.204437,122.180573 89.055077,113.515251 89.109566,104.852707 
	C89.146111,99.042419 87.341087,92.011871 89.969780,87.757904 
	C92.738808,83.276825 99.800186,81.446739 104.989891,78.464897 
	C105.566414,78.133652 106.141487,77.669968 106.763130,77.577980 
	C107.669846,77.443825 108.793015,77.271187 109.521057,77.669090 
	C115.208977,80.777740 122.132294,82.934235 126.002632,87.600540 
	C128.584702,90.713654 126.790085,97.459854 126.943901,102.580414 
	C126.963882,103.245522 127.041100,103.944221 126.874397,104.569389 
	C126.717697,105.157112 126.408257,105.899345 125.934029,106.176140 
	C122.302734,108.295593 118.614716,110.317886 114.208145,112.782066 
	C114.208145,107.086555 113.912193,102.586906 114.289200,98.144371 
	C114.687042,93.456276 111.218750,92.501122 108.235413,91.605934 
	C105.569954,90.806122 101.873085,94.950027 101.862160,98.155830 
	C101.833221,106.652023 101.808655,115.148697 101.868729,123.644562 
	C101.905052,128.781387 106.472992,131.430450 111.084244,128.923874 
	C119.563026,124.315018 128.042419,119.695671 136.335327,114.767296 
	C137.807693,113.892288 139.173111,111.524002 139.229645,109.800697 
	C139.519012,100.980705 139.514999,92.141304 139.234375,83.320755 
	C139.178940,81.578384 137.893311,79.162781 136.437485,78.295120 
	C128.151108,73.356537 119.717758,68.644264 111.141289,64.230225 
	C109.464333,63.367149 106.563522,63.429401 104.866295,64.304451 
	C96.588036,68.572517 88.598137,73.397552 80.348228,77.724274 
	C77.593620,79.168945 76.622841,80.830544 76.645988,83.903419 
	C76.781509,101.894547 76.761383,119.887482 76.661659,137.879074 
	C76.646240,140.661392 77.308685,142.467834 79.936447,143.861710 
	C88.460670,148.383270 96.783119,153.288467 105.352524,157.718521 
	C106.888008,158.512283 109.601593,158.434250 111.140671,157.598099 
	C128.099609,148.384521 144.970566,139.005829 161.737228,129.447052 
	C163.204575,128.610504 164.599884,126.192177 164.618469,124.493126 
	C164.822617,105.836838 164.822449,87.176666 164.619019,68.520355 
	C164.600464,66.819283 163.213791,64.396049 161.748383,63.560562 
	C144.982147,54.001354 128.118073,44.609947 111.143845,35.425549 
	C109.520325,34.547096 106.617523,34.653889 104.926178,35.515530 
	C97.073151,39.516205 89.437836,43.944233 81.101494,48.612797 
z"/>
<path fill="#FBFCFF" opacity="1.000000" stroke="none" 
	d="
M81.413040,48.416039 
	C89.437836,43.944233 97.073151,39.516205 104.926178,35.515530 
	C106.617523,34.653889 109.520325,34.547096 111.143845,35.425549 
	C128.118073,44.609947 144.982147,54.001354 161.748383,63.560562 
	C163.213791,64.396049 164.600464,66.819283 164.619019,68.520355 
	C164.822449,87.176666 164.822617,105.836838 164.618469,124.493126 
	C164.599884,126.192177 163.204575,128.610504 161.737228,129.447052 
	C144.970566,139.005829 128.099609,148.384521 111.140671,157.598099 
	C109.601593,158.434250 106.888008,158.512283 105.352524,157.718521 
	C96.783119,153.288467 88.460670,148.383270 79.936447,143.861710 
	C77.308685,142.467834 76.646240,140.661392 76.661659,137.879074 
	C76.761383,119.887482 76.781509,101.894547 76.645988,83.903419 
	C76.622841,80.830544 77.593620,79.168945 80.348228,77.724274 
	C88.598137,73.397552 96.588036,68.572517 104.866295,64.304451 
	C106.563522,63.429401 109.464333,63.367149 111.141289,64.230225 
	C119.717758,68.644264 128.151108,73.356537 136.437485,78.295120 
	C137.893311,79.162781 139.178940,81.578384 139.234375,83.320755 
	C139.514999,92.141304 139.519012,100.980705 139.229645,109.800697 
	C139.173111,111.524002 137.807693,113.892288 136.335327,114.767296 
	C128.042419,119.695671 119.563026,124.315018 111.084244,128.923874 
	C106.472992,131.430450 101.905052,128.781387 101.868729,123.644562 
	C101.808655,115.148697 101.833221,106.652023 101.862160,98.155830 
	C101.873085,94.950027 105.569954,90.806122 108.235413,91.605934 
	C111.218750,92.501122 114.687042,93.456276 114.289200,98.144371 
	C113.912193,102.586906 114.208145,107.086555 114.208145,112.782066 
	C118.614716,110.317886 122.302734,108.295593 125.934029,106.176140 
	C126.408257,105.899345 126.717697,105.157112 126.874397,104.569389 
	C127.041100,103.944221 126.963882,103.245522 126.943901,102.580414 
	C126.790085,97.459854 128.584702,90.713654 126.002632,87.600540 
	C122.132294,82.934235 115.208977,80.777740 109.521057,77.669090 
	C108.793015,77.271187 107.669846,77.443825 106.763130,77.577980 
	C106.141487,77.669968 105.566414,78.133652 104.989891,78.464897 
	C99.800186,81.446739 92.738808,83.276825 89.969780,87.757904 
	C87.341087,92.011871 89.146111,99.042419 89.109566,104.852707 
	C89.055077,113.515251 89.204437,122.180573 89.031242,130.839996 
	C88.977074,133.548401 89.817162,135.045853 92.263878,136.254852 
	C97.617554,138.900299 102.769623,144.003021 108.077843,144.100952 
	C113.143028,144.194382 118.321243,139.248291 123.415077,136.454300 
	C131.731277,131.892807 139.974548,127.195900 148.345535,122.738213 
	C150.971878,121.339638 152.159576,119.767921 152.112259,116.596153 
	C151.910965,103.105042 152.143539,89.606995 151.888580,76.117706 
	C151.854111,74.293907 150.403442,71.726761 148.844131,70.823654 
	C136.318268,63.569077 123.653999,56.547211 110.895218,49.709503 
	C109.394066,48.904999 106.698738,48.962093 105.177345,49.777397 
	C92.564575,56.536507 80.144470,63.654556 67.550011,70.448875 
	C64.834618,71.913750 63.900417,73.553925 63.928047,76.626823 
	C64.085327,94.117775 64.009758,111.610870 63.995075,129.103210 
	C63.993732,130.701401 63.863323,132.299469 63.758465,134.677292 
	C59.745232,132.482422 56.189247,130.763672 52.920559,128.609070 
	C51.968410,127.981461 51.400650,126.111809 51.394016,124.807724 
	C51.298264,105.983093 51.249584,87.156929 51.464809,68.334267 
	C51.483841,66.669838 53.033043,64.365692 54.533058,63.483677 
	C63.279747,58.340572 72.223984,53.533421 81.413040,48.416039 
z"/>
</svg>