<?xml version="1.0" encoding="utf-8"?><!-- Uploaded to: SVG Repo, www.svgrepo.com, Generator: SVG Repo Mixer Tools -->
<svg width="800px" height="800px" viewBox="-0.5 0 25 25" fill="none" xmlns="http://www.w3.org/2000/svg">
<path d="M7.05005 15.81L10.6201 12.11C10.8201 11.9 11.1501 11.91 11.3401 12.12L12.14 12.98C12.34 13.19 12.6701 13.19 12.8701 12.98L14.94 10.81" stroke="#0F0F0F" stroke-miterlimit="10" stroke-linecap="round" stroke-linejoin="round"/>
<path d="M16.88 12.86L16.95 9.41C16.95 9.1 16.7001 8.84 16.4001 8.84L12.9301 8.86" stroke="#0F0F0F" stroke-miterlimit="10" stroke-linecap="round" stroke-linejoin="round"/>
<path d="M12 22C17.2467 22 21.5 17.7467 21.5 12.5C21.5 7.25329 17.2467 3 12 3C6.75329 3 2.5 7.25329 2.5 12.5C2.5 17.7467 6.75329 22 12 22Z" stroke="#0F0F0F" stroke-miterlimit="10" stroke-linecap="round" stroke-linejoin="round"/>
</svg>